# xmcd CD database file
#
# Track frame offsets:
#	150
#	12936
#	28424
#	41569
#	54135
#	69514
#	84519
#	97950
#	110151
#	122880
#	135508
#	147420
#	160199
#	174824
#	188710
#	202133
#	216978
#
# Disc length: 3122 seconds
#
# Revision: 2
# Processed by: cddbd v1.5.1PL2 Copyright (c) Steve Scherf et al.
# Submitted via: CDex 1.51
#
DISCID=f10c3011
DTITLE=0444-Blues Is Black - Disc 1 - Blues Is Black - Disc 1
DYEAR=2003
DGENRE=Blues
TTITLE0=Sonny Terry - Airplane Blues
TTITLE1=Joe Lee Williams - Baby Please Don´T Go
TTITLE2=Blind Boy Fuller and Sonny Terry - Blowing The Blues
TTITLE3=Sleepy John Estes - Drop Down (I Don´T Feel Welcome Here)
TTITLE4=J Hurt - Frankie
TTITLE5=Big Bill Broonzy - Good Helly
TTITLE6=Bessie Smith - Mama´S  Got The Blues
TTITLE7=Charly Patton - Revue Man Blues
TTITLE8=P Chatman - The Jive Blues
TTITLE9=Memphis Mini - Me Ana Chafeur Blues
TTITLE10=Arthur Crudup - Mean Old ´Frisco Blues
TTITLE11=Kokomo Arnold - Sally Dog
TTITLE12=Q - John Lee Willianson - Susi
TTITLE13=T-Bone Walker /T-Bone Boogie
TTITLE14=Tampa Red - You Can´T Get That Stuff No More
TTITLE15=Ma Rainey And Her - Booze And Blues
TTITLE16=John Davis - Everyday I Had The Blues
EXTD=YEAR: 2003
EXTT0=
EXTT1=
EXTT2=
EXTT3=
EXTT4=
EXTT5=
EXTT6=
EXTT7=
EXTT8=
EXTT9=
EXTT10=
EXTT11=
EXTT12=
EXTT13=
EXTT14=
EXTT15=
EXTT16=
PLAYORDER=
